{
  "accessors": [
    {
      "bufferView": 2,
      "componentType": 5126,
      "count": 3072,
      "max": [
        0.17749729752540588,
        1.589050054550171,
        0.13852369785308838
      ],
      "min": [
        -0.17749670147895813,
        0.7515015006065369,
        -0.29695409536361694
      ],
      "type": "VEC3"
    },
    {
      "bufferView": 2,
      "byteOffset": 36864,
      "componentType": 5126,
      "count": 3072,
      "max": [
        0.9990876913070679,
        0.9975224137306213,
        0.9989398121833801
      ],
      "min": [
        -0.9999338984489441,
        -0.9994544982910156,
        -0.9996883869171143
      ],
      "type": "VEC3"
    },
    {
      "bufferView": 1,
      "componentType": 5126,
      "count": 3072,
      "max": [
        0.9933249950408936,
        0.9975000023841858
      ],
      "min": [
        0.0005249999812804163,
        0.002592999953776598
      ],
      "type": "VEC2"
    },
    {
      "bufferView": 0,
      "componentType": 5125,
      "count": 12822,
      "type": "SCALAR"
    },
    {
      "bufferView": 2,
      "byteOffset": 73728,
      "componentType": 5126,
      "count": 9110,
      "max": [
        0.4157117009162903,
        1.407148003578186,
        0.138830304145813
      ],
      "min": [
        -0.4157117009162903,
        -0.02082625962793827,
        -0.12352369725704193
      ],
      "type": "VEC3"
    },
    {
      "bufferView": 2,
      "byteOffset": 183048,
      "componentType": 5126,
      "count": 9110,
      "max": [
        0.9999752044677734,
        0.9998940229415894,
        1.0
      ],
      "min": [
        -0.9999786019325256,
        -1.0,
        -1.0
      ],
      "type": "VEC3"
    },
    {
      "bufferView": 1,
      "byteOffset": 24576,
      "componentType": 5126,
      "count": 9110,
      "max": [
        1.000100016593933,
        0.9980000257492065
      ],
      "min": [
        0.005614519119262695,
        0.003000000026077032
      ],
      "type": "VEC2"
    },
    {
      "bufferView": 0,
      "byteOffset": 51288,
      "componentType": 5125,
      "count": 34380,
      "type": "SCALAR"
    },
    {
      "bufferView": 2,
      "byteOffset": 292368,
      "componentType": 5126,
      "count": 1077,
      "max": [
        0.17815600335597992,
        1.1416029930114746,
        0.14482760429382324
      ],
      "min": [
        -0.26298099756240845,
        0.44591790437698364,
        -0.2809542119503021
      ],
      "type": "VEC3"
    },
    {
      "bufferView": 2,
      "byteOffset": 305292,
      "componentType": 5126,
      "count": 1077,
      "max": [
        0.9983013272285461,
        0.9858018159866333,
        0.9997233152389526
      ],
      "min": [
        -0.9955227971076965,
        -0.8953496217727661,
        -0.9579266905784607
      ],
      "type": "VEC3"
    },
    {
      "bufferView": 1,
      "byteOffset": 97456,
      "componentType": 5126,
      "count": 1077,
      "max": [
        0.8950999975204468,
        0.9979783892631531
      ],
      "min": [
        0.10455860197544098,
        0.058469079434871674
      ],
      "type": "VEC2"
    },
    {
      "bufferView": 0,
      "byteOffset": 188808,
      "componentType": 5125,
      "count": 3699,
      "type": "SCALAR"
    },
    {
      "bufferView": 2,
      "byteOffset": 318216,
      "componentType": 5126,
      "count": 32,
      "max": [
        0.06954990327358246,
        1.4273170232772827,
        0.11841119825839996
      ],
      "min": [
        -0.06954988837242126,
        1.4142290353775024,
        0.08919118344783783
      ],
      "type": "VEC3"
    },
    {
      "bufferView": 2,
      "byteOffset": 318600,
      "componentType": 5126,
      "count": 32,
      "max": [
        0.6351815462112427,
        -0.11730880290269852,
        0.945801317691803
      ],
      "min": [
        -0.6351742148399353,
        -0.30798643827438354,
        0.7082999348640442
      ],
      "type": "VEC3"
    },
    {
      "bufferView": 1,
      "byteOffset": 106072,
      "componentType": 5126,
      "count": 32,
      "max": [
        0.338318407535553,
        0.9884747862815857
      ],
      "min": [
        0.16034859418869019,
        0.9652976989746094
      ],
      "type": "VEC2"
    },
    {
      "bufferView": 0,
      "byteOffset": 203604,
      "componentType": 5125,
      "count": 84,
      "type": "SCALAR"
    },
    {
      "bufferView": 2,
      "byteOffset": 318984,
      "componentType": 5126,
      "count": 918,
      "max": [
        0.0883374884724617,
        1.500538945198059,
        0.127319797873497
      ],
      "min": [
        -0.08837371319532394,
        1.29692804813385,
        0.0009993758285418153
      ],
      "type": "VEC3"
    },
    {
      "bufferView": 2,
      "byteOffset": 330000,
      "componentType": 5126,
      "count": 918,
      "max": [
        0.9986518025398254,
        0.99994957447052,
        0.9999089241027832
      ],
      "min": [
        -0.9986516833305359,
        -0.9994567036628723,
        -0.9999768733978271
      ],
      "type": "VEC3"
    },
    {
      "bufferView": 1,
      "byteOffset": 106328,
      "componentType": 5126,
      "count": 918,
      "max": [
        0.9653815031051636,
        0.9314780235290527
      ],
      "min": [
        0.03459952026605606,
        0.0012910000514239073
      ],
      "type": "VEC2"
    },
    {
      "bufferView": 0,
      "byteOffset": 203940,
      "componentType": 5125,
      "count": 4518,
      "type": "SCALAR"
    },
    {
      "bufferView": 2,
      "byteOffset": 341016,
      "componentType": 5126,
      "count": 881,
      "max": [
        0.08220186829566956,
        1.4342600107192993,
        0.12177000194787979
      ],
      "min": [
        -0.08220191299915314,
        1.3290990591049194,
        0.05572846159338951
      ],
      "type": "VEC3"
    },
    {
      "bufferView": 2,
      "byteOffset": 351588,
      "componentType": 5126,
      "count": 881,
      "max": [
        0.9958701133728027,
        0.9695703983306885,
        0.9986479878425598
      ],
      "min": [
        -0.9958634972572327,
        -0.9673900008201599,
        -0.9786503911018372
      ],
      "type": "VEC3"
    },
    {
      "bufferView": 1,
      "byteOffset": 113672,
      "componentType": 5126,
      "count": 881,
      "max": [
        0.8198000192642212,
        0.9913411736488342
      ],
      "min": [
        0.04402047023177147,
        0.3637000024318695
      ],
      "type": "VEC2"
    },
    {
      "bufferView": 0,
      "byteOffset": 222012,
      "componentType": 5125,
      "count": 4530,
      "type": "SCALAR"
    }
  ],
  "asset": {
    "extras": {
      "author": "_INSTICT_ (https://sketchfab.com/_INSTICT_)",
      "license": "CC-BY-4.0 (http://creativecommons.org/licenses/by/4.0/)",
      "source": "https://sketchfab.com/3d-models/ganyu-fbx-with-textures-8ad1daf595e747f0b7a6d38ceb01af6c",
      "title": "Ganyu fbx with textures"
    },
    "generator": "Sketchfab-10.73.0",
    "version": "2.0"
  },
  "bufferViews": [
    {
      "buffer": 0,
      "byteLength": 240132,
      "name": "floatBufferViews",
      "target": 34963
    },
    {
      "buffer": 0,
      "byteLength": 120720,
      "byteOffset": 240132,
      "byteStride": 8,
      "name": "floatBufferViews",
      "target": 34962
    },
    {
      "buffer": 0,
      "byteLength": 362160,
      "byteOffset": 360852,
      "byteStride": 12,
      "name": "floatBufferViews",
      "target": 34962
    }
  ],
  "buffers": [
    {
      "byteLength": 723012,
      "uri": "ganyu.bin"
    }
  ],
  "images": [
    {
      "uri": "textures/New_Material_2_baseColor.png"
    },
    {
      "uri": "textures/New_Material_baseColor.png"
    },
    {
      "uri": "textures/New_Material_1_baseColor.png"
    }
  ],
  "materials": [
    {
      "doubleSided": true,
      "name": "New_Material_2",
      "pbrMetallicRoughness": {
        "baseColorTexture": {
          "index": 0
        },
        "metallicFactor": 0.0,
        "roughnessFactor": 0.9577051494623774
      }
    },
    {
      "doubleSided": true,
      "name": "New_Material",
      "pbrMetallicRoughness": {
        "baseColorTexture": {
          "index": 1
        },
        "metallicFactor": 0.0,
        "roughnessFactor": 0.9577051494623774
      }
    },
    {
      "doubleSided": true,
      "name": "New_Material_1",
      "pbrMetallicRoughness": {
        "baseColorTexture": {
          "index": 2
        },
        "metallicFactor": 0.0,
        "roughnessFactor": 0.9577051494623774
      }
    }
  ],
  "meshes": [
    {
      "name": "Body_0_New Material 2_0",
      "primitives": [
        {
          "attributes": {
            "NORMAL": 1,
            "POSITION": 0,
            "TEXCOORD_0": 2
          },
          "indices": 3,
          "material": 0,
          "mode": 4
        }
      ]
    },
    {
      "name": "Body_1_New Material_0",
      "primitives": [
        {
          "attributes": {
            "NORMAL": 5,
            "POSITION": 4,
            "TEXCOORD_0": 6
          },
          "indices": 7,
          "material": 1,
          "mode": 4
        }
      ]
    },
    {
      "name": "Body_2_New Material_0",
      "primitives": [
        {
          "attributes": {
            "NORMAL": 9,
            "POSITION": 8,
            "TEXCOORD_0": 10
          },
          "indices": 11,
          "material": 1,
          "mode": 4
        }
      ]
    },
    {
      "name": "Brow_0_New Material 1_0",
      "primitives": [
        {
          "attributes": {
            "NORMAL": 13,
            "POSITION": 12,
            "TEXCOORD_0": 14
          },
          "indices": 15,
          "material": 2,
          "mode": 4
        }
      ]
    },
    {
      "name": "Face_0_New Material 1_0",
      "primitives": [
        {
          "attributes": {
            "NORMAL": 17,
            "POSITION": 16,
            "TEXCOORD_0": 18
          },
          "indices": 19,
          "material": 2,
          "mode": 4
        }
      ]
    },
    {
      "name": "Face_Eye_0_New Material 1_0",
      "primitives": [
        {
          "attributes": {
            "NORMAL": 21,
            "POSITION": 20,
            "TEXCOORD_0": 22
          },
          "indices": 23,
          "material": 2,
          "mode": 4
        }
      ]
    }
  ],
  "nodes": [
    {
      "children": [
        1
      ],
      "matrix": [
        1.0,
        0.0,
        0.0,
        0.0,
        0.0,
        2.220446049250313e-16,
        -1.0,
        0.0,
        0.0,
        1.0,
        2.220446049250313e-16,
        0.0,
        0.0,
        0.0,
        0.0,
        1.0
      ],
      "name": "Sketchfab_model"
    },
    {
      "children": [
        2
      ],
      "matrix": [
        1.0,
        0.0,
        0.0,
        0.0,
        0.0,
        0.0,
        1.0,
        0.0,
        0.0,
        -1.0,
        0.0,
        0.0,
        0.0,
        0.0,
        0.0,
        1.0
      ],
      "name": "ganyu.fbx"
    },
    {
      "children": [
        3
      ],
      "name": "RootNode"
    },
    {
      "children": [
        4,
        11,
        14,
        17
      ],
      "matrix": [
        1.0,
        0.0,
        0.0,
        0.0,
        0.0,
        1.0,
        0.0,
        0.0,
        0.0,
        0.0,
        1.0,
        0.0,
        0.002047176007181406,
        1.0439590215682983,
        -7.60762882232666,
        1.0
      ],
      "name": "GameObject"
    },
    {
      "children": [
        5,
        7,
        9
      ],
      "matrix": [
        1.0,
        0.0,
        0.0,
        0.0,
        0.0,
        1.0,
        0.0,
        0.0,
        0.0,
        0.0,
        1.0,
        0.0,
        -0.002047176007181406,
        -1.0439590215682983,
        7.60762882232666,
        1.0
      ],
      "name": "Body"
    },
    {
      "children": [
        6
      ],
      "name": "Body_0"
    },
    {
      "mesh": 0,
      "name": "Body_0_New Material 2_0"
    },
    {
      "children": [
        8
      ],
      "name": "Body_1"
    },
    {
      "mesh": 1,
      "name": "Body_1_New Material_0"
    },
    {
      "children": [
        10
      ],
      "name": "Body_2"
    },
    {
      "mesh": 2,
      "name": "Body_2_New Material_0"
    },
    {
      "children": [
        12
      ],
      "matrix": [
        1.0,
        0.0,
        0.0,
        0.0,
        0.0,
        1.0,
        0.0,
        0.0,
        0.0,
        0.0,
        1.0,
        0.0,
        -0.002047176007181406,
        -1.0439590215682983,
        7.60762882232666,
        1.0
      ],
      "name": "Brow"
    },
    {
      "children": [
        13
      ],
      "name": "Brow_0"
    },
    {
      "mesh": 3,
      "name": "Brow_0_New Material 1_0"
    },
    {
      "children": [
        15
      ],
      "matrix": [
        1.0,
        0.0,
        0.0,
        0.0,
        0.0,
        1.0,
        0.0,
        0.0,
        0.0,
        0.0,
        1.0,
        0.0,
        -0.002047176007181406,
        -1.0439590215682983,
        7.60762882232666,
        1.0
      ],
      "name": "Face"
    },
    {
      "children": [
        16
      ],
      "name": "Face_0"
    },
    {
      "mesh": 4,
      "name": "Face_0_New Material 1_0"
    },
    {
      "children": [
        18
      ],
      "matrix": [
        1.0,
        0.0,
        0.0,
        0.0,
        0.0,
        1.0,
        0.0,
        0.0,
        0.0,
        0.0,
        1.0,
        0.0,
        -0.002047176007181406,
        -1.0439590215682983,
        7.60762882232666,
        1.0
      ],
      "name": "Face_Eye"
    },
    {
      "children": [
        19
      ],
      "name": "Face_Eye_0"
    },
    {
      "mesh": 5,
      "name": "Face_Eye_0_New Material 1_0"
    }
  ],
  "samplers": [
    {
      "magFilter": 9729,
      "minFilter": 9987,
      "wrapS": 10497,
      "wrapT": 10497
    }
  ],
  "scene": 0,
  "scenes": [
    {
      "name": "Sketchfab_Scene",
      "nodes": [
        0
      ]
    }
  ],
  "textures": [
    {
      "sampler": 0,
      "source": 0
    },
    {
      "sampler": 0,
      "source": 1
    },
    {
      "sampler": 0,
      "source": 2
    }
  ]
}
